<svg width="78" height="20" viewBox="0 0 78 20" fill="none" xmlns="http://www.w3.org/2000/svg">
<path fill-rule="evenodd" clip-rule="evenodd" d="M66.8842 0.0227526C63.1712 0.401761 59.9574 2.81339 58.5737 6.25892C58.1855 7.22537 57.9682 8.15857 57.8821 9.228C57.8579 9.52918 57.8493 11.0653 57.856 13.8651L57.8661 18.0518L57.9451 18.2854C58.1779 18.9737 58.5867 19.452 59.2021 19.7563C59.7367 20.0206 59.4409 20.0071 64.441 19.9945C69.2582 19.9823 68.9825 19.9921 69.9389 19.7998C71.7662 19.4324 73.5857 18.4513 74.9432 17.1015C76.5065 15.5471 77.4945 13.5846 77.807 11.4131C77.8738 10.9487 77.8738 9.04185 77.807 8.57747C77.3477 5.38584 75.3766 2.60559 72.5122 1.10914C71.5176 0.589547 70.4499 0.249904 69.2389 0.0678225C68.8217 0.0051049 67.3358 -0.0233516 66.8842 0.0227526ZM17.7021 8.89496V15.1339L18.5788 15.125L19.4556 15.1161L19.464 8.88606L19.4725 2.65599H18.5873H17.7021V8.89496ZM39.6242 2.72271C39.3123 2.78743 39.0137 3.00991 38.8778 3.27883C38.7704 3.4913 38.7477 3.84953 38.8267 4.08699C38.9013 4.31147 39.1329 4.56358 39.3722 4.68097C39.5354 4.76104 39.6032 4.77438 39.8465 4.77438C40.0899 4.77438 40.1577 4.76104 40.3209 4.68097C40.5773 4.55524 40.7992 4.30567 40.8695 4.06417C40.9833 3.67309 40.8666 3.22953 40.5847 2.98232C40.3386 2.76652 39.9366 2.65786 39.6242 2.72271ZM43.22 4.8411V5.95868H42.5854H41.9508V6.67593V7.39318H42.5687H43.1866L43.1869 10.1538C43.187 11.8015 43.2008 13.0354 43.2211 13.2146C43.3665 14.5012 43.9471 15.031 45.3623 15.1682C45.7516 15.206 46.5391 15.1924 46.7187 15.1449C46.7935 15.1251 46.7938 15.1219 46.7938 14.4491V13.7731L46.2845 13.7568C45.9174 13.745 45.7257 13.7237 45.5981 13.6804C45.3499 13.5962 45.1455 13.4063 45.0507 13.1718L44.9735 12.9811L44.9641 10.1871L44.9546 7.39318H45.8575H46.7604V6.67593V5.95868H45.8586H44.9568V4.8411V3.72353H44.0884H43.22V4.8411ZM67.1347 4.1061C66.2054 4.2605 65.4676 4.63467 64.7709 5.30485C64.0175 6.02963 63.5956 6.80316 63.4438 7.73772C63.3787 8.13895 63.3795 8.90364 63.4456 9.28188C63.7134 10.816 64.9352 12.1712 66.3959 12.5543C66.7634 12.6507 67.4916 12.6927 67.8779 12.6397C68.0019 12.6227 68.1033 12.6152 68.1033 12.6231C68.1033 12.6309 67.3894 13.6045 66.5168 14.7865C65.6442 15.9686 64.9303 16.9431 64.9303 16.9521C64.9303 16.9611 65.2554 17.2097 65.6527 17.5046C66.2422 17.9421 66.3827 18.0326 66.4159 17.9963C66.4699 17.9371 71.0527 11.7416 71.2484 11.4632C71.9168 10.512 72.3141 9.48581 72.3668 8.5746C72.4324 7.43995 72.0366 6.41341 71.1929 5.53013C70.5095 4.81468 69.7601 4.37516 68.8715 4.16856C68.423 4.06427 67.5708 4.03365 67.1347 4.1061ZM11.5538 5.87701C10.0456 6.1498 9.00108 7.16132 8.63441 8.70414C8.51644 9.20055 8.48351 9.5938 8.48381 10.5027C8.48418 11.6066 8.54607 12.1128 8.75826 12.7475C9.1769 13.9998 10.0512 14.8174 11.3282 15.1508C11.7966 15.2732 12.7057 15.3047 13.2327 15.2169C14.6198 14.9858 15.5868 14.2018 15.9968 12.9761C16.1615 12.4837 16.2395 12.5305 15.2555 12.5318L14.4121 12.533L14.2962 12.7904C14.2076 12.9869 14.1248 13.1037 13.9455 13.2844C13.5639 13.6689 13.1144 13.8384 12.4749 13.8388C11.8497 13.8392 11.4261 13.6697 11.0014 13.2494C10.7765 13.0267 10.7043 12.9272 10.5767 12.6641C10.3785 12.2552 10.2887 11.8843 10.2639 11.3714L10.244 10.9627H13.2424H16.2408L16.2237 10.1704C16.2125 9.64758 16.188 9.27601 16.1516 9.07788C15.9821 8.15329 15.6519 7.45673 15.121 6.90405C14.5906 6.3519 13.9683 6.0252 13.1643 5.87678C12.8153 5.81236 11.9105 5.81249 11.5538 5.87701ZM24.1457 5.87701C22.4716 6.17979 21.3641 7.34571 21.0373 9.1494C20.9754 9.49128 20.9654 9.6739 20.9638 10.4957C20.9619 11.5059 20.9857 11.7737 21.1282 12.3433C21.5236 13.924 22.629 14.9631 24.1829 15.2148C24.5977 15.282 25.4181 15.282 25.8056 15.2148C27.5473 14.9131 28.6542 13.712 28.9407 11.8131C29.0116 11.3438 29.011 9.7186 28.9399 9.24008C28.666 7.39815 27.5241 6.17258 25.8056 5.87638C25.4343 5.81236 24.5012 5.81269 24.1457 5.87701ZM33.1815 5.87397C31.6255 6.1563 30.5402 7.25667 30.1933 8.90357C30.0482 9.59276 30.0242 11.0372 30.1444 11.846C30.2854 12.7947 30.6495 13.5748 31.2359 14.1849C31.7018 14.6696 32.2193 14.9672 32.9302 15.1593C33.2273 15.2396 33.3022 15.2458 33.9848 15.2476C34.7682 15.2497 35.0057 15.2189 35.4977 15.0516C36.5504 14.6937 37.2677 13.9183 37.5439 12.8398C37.5796 12.7006 37.6087 12.5513 37.6087 12.5081V12.4295L36.7722 12.4384L35.9357 12.4473L35.8586 12.6677C35.6015 13.4027 34.9206 13.7977 33.9848 13.7546C33.3971 13.7276 32.9812 13.5456 32.6063 13.1514C32.2414 12.7676 32.012 12.2633 31.9093 11.6192C31.8397 11.1826 31.8621 9.52948 31.9422 9.19464C32.1842 8.18272 32.699 7.58813 33.5172 7.37543C33.7958 7.303 34.3032 7.30277 34.5534 7.3749C35.1449 7.5455 35.6548 8.04127 35.8226 8.60907L35.8625 8.74428L36.7189 8.75318C37.5189 8.76149 37.5753 8.75819 37.5749 8.70314C37.5747 8.67072 37.5464 8.50908 37.5121 8.34395C37.2472 7.06851 36.1876 6.11928 34.757 5.87574C34.395 5.81413 33.5168 5.81313 33.1815 5.87397ZM67.4854 5.88018C66.7686 5.99537 66.137 6.41038 65.7173 7.04189C65.249 7.74663 65.208 8.80803 65.6201 9.55997C66.2091 10.6348 67.3614 11.1318 68.5594 10.8276C69.417 10.6099 70.168 9.83506 70.3609 8.96886C70.4461 8.58655 70.4147 7.92708 70.2946 7.57666C70.0308 6.80677 69.3712 6.17689 68.5994 5.95781C68.3562 5.88879 67.7114 5.84385 67.4854 5.88018ZM1.79421e-08 5.9837C0.000100219 5.99744 0.704916 8.05788 1.56628 10.5624L3.13239 15.1161H4.10782H5.08325L6.68396 10.6125C7.56436 8.13545 8.29356 6.07477 8.30438 6.03317L8.32406 5.95758L7.42685 5.96645L6.52962 5.97536L5.33101 9.57208C4.67175 11.5503 4.12004 13.1565 4.10501 13.1414C4.08995 13.1264 3.59532 11.5529 3.00584 9.64481C2.41635 7.73669 1.91852 6.12671 1.89958 6.0671L1.86508 5.95868H0.93244C0.41951 5.95868 -0.000100183 5.96995 1.79421e-08 5.9837ZM38.953 10.5374L38.9614 15.1161L39.8382 15.125L40.715 15.1339V10.5463V5.95868H39.8297H38.9445L38.953 10.5374ZM47.4285 5.99521C47.4285 6.01582 48.1677 8.09635 49.0712 10.6186L50.7138 15.2044L50.638 15.4939C50.4216 16.3198 50.1448 16.713 49.6497 16.898C49.3739 17.0011 48.9116 17.0471 48.5056 17.0119L48.1633 16.9821V17.6731V18.364L48.3553 18.3913C48.7143 18.4426 49.7246 18.4237 50.0103 18.3605C51.1944 18.0985 51.8935 17.3418 52.5347 15.6285C52.6948 15.2006 55.8699 6.14343 55.9043 6.01652C55.9193 5.96108 55.8647 5.95814 54.9768 5.96648L54.0335 5.97536L52.8922 9.59497C51.6615 13.4983 51.7099 13.3486 51.6856 13.3244C51.6766 13.3154 51.153 11.6581 50.5222 9.64164L49.3752 5.97536L48.4018 5.96652C47.6979 5.96011 47.4285 5.96805 47.4285 5.99521ZM11.8876 7.27498C11.1826 7.45423 10.6423 7.97061 10.4071 8.69C10.3082 8.99261 10.2538 9.28051 10.2538 9.50102V9.66169H12.3775H14.5013L14.4777 9.40314C14.3828 8.3666 13.8537 7.62376 12.9933 7.31902C12.7485 7.23228 12.1493 7.20843 11.8876 7.27498ZM24.5908 7.29446C23.5915 7.47374 22.9566 8.25131 22.7812 9.51046C22.735 9.8418 22.735 11.2163 22.7812 11.5477C22.8386 11.9599 22.9368 12.2919 23.1015 12.6308C23.2293 12.8937 23.3017 12.9933 23.5266 13.2156C23.9498 13.6338 24.3634 13.7971 25.0001 13.7973C25.8506 13.7975 26.481 13.4092 26.8527 12.6561C27.1463 12.0612 27.2212 11.6268 27.2212 10.5175C27.2212 9.70179 27.1691 9.23557 27.0326 8.82768C26.7713 8.04711 26.2647 7.52255 25.6013 7.34554C25.3526 7.27922 24.8246 7.25253 24.5908 7.29446Z" fill="white"/>
</svg>
