<svg width="81" height="20" viewBox="0 0 81 20" fill="none" xmlns="http://www.w3.org/2000/svg">
<path fill-rule="evenodd" clip-rule="evenodd" d="M7.34221 0.00796849C6.9557 0.0499661 6.48054 0.139503 6.12165 0.238021C3.69597 0.903639 1.75695 2.84511 1.09218 5.27386C0.849277 6.16119 0.857146 6.00298 0.857146 10.0013C0.857146 13.9997 0.849277 13.8415 1.09218 14.7288C1.75695 17.1576 3.69597 19.099 6.12165 19.7646C7.00785 20.0078 6.84984 20 10.8431 20C14.8364 20 14.6784 20.0078 15.5646 19.7646C17.9903 19.099 19.9293 17.1576 20.5941 14.7288C20.837 13.8415 20.8291 13.9997 20.8291 10.0013C20.8291 6.67684 20.8246 6.38576 20.7681 6.04935C20.5689 4.8651 20.1089 3.79433 19.3825 2.82408C19.1488 2.51187 18.5758 1.91469 18.2453 1.6388C17.3057 0.854431 16.1675 0.324453 14.8942 0.0783763C14.536 0.00913695 14.4452 0.00733418 10.9932 0.00139175C9.04933 -0.00198008 7.40639 0.000991139 7.34221 0.00796849ZM60.4063 2.63476C60.0126 2.76579 59.7158 3.02395 59.5459 3.38317C59.4494 3.58721 59.4394 3.63786 59.4394 3.92607C59.4394 4.21691 59.4486 4.26258 59.5473 4.46329C59.6783 4.72976 59.936 4.9959 60.1776 5.11425C60.5615 5.30231 61.1224 5.2978 61.5233 5.1035C61.7522 4.9926 62.0512 4.69608 62.1559 4.47621C62.2641 4.24909 62.2907 3.74435 62.2078 3.4942C62.0963 3.15812 61.7626 2.82354 61.3899 2.67405C61.1937 2.59536 60.5964 2.57149 60.4063 2.63476ZM7.37555 7.58019V11.2284L6.86708 11.2455C6.28956 11.2649 6.06393 11.3173 5.62342 11.5347C5.24151 11.7232 4.94477 12.0045 4.78386 12.3306C4.66469 12.5722 4.65819 12.6019 4.65906 12.9042C4.65986 13.1825 4.672 13.2493 4.75488 13.4306C4.98455 13.9332 5.46937 14.1966 6.31297 14.2772C7.15456 14.3575 7.72938 14.1558 8.31307 13.5753C8.58347 13.3063 8.65489 13.2118 8.76852 12.9725C8.84264 12.8165 8.91963 12.6092 8.93963 12.5119C8.96374 12.3945 8.97598 11.5804 8.97598 10.0919V7.84894L9.64942 8.54954C10.0198 8.9349 10.5372 9.46802 10.7992 9.73426L11.2755 10.2183L12.4764 9.01666L13.6772 7.81499V12.0296V16.2442H14.4774H15.2777V10.0932V3.94226L13.2775 5.94479L11.2773 7.94732L11.1989 7.86429C11.0044 7.65805 8.56557 5.1456 8.00245 4.57132L7.37555 3.93197V7.58019ZM28.43 6.74458C27.6018 6.87348 26.9271 7.33866 26.4607 8.10243L26.3306 8.31542L26.3216 7.62269L26.3126 6.92996H25.263H24.2134V11.3701V15.8102H25.329H26.4447L26.4553 13.0977L26.4659 10.3853L26.5423 10.1354C26.7644 9.40812 27.2483 8.92408 27.9144 8.76297C28.1758 8.69974 28.7549 8.70608 28.9813 8.77465C29.4901 8.92876 29.796 9.33588 29.9139 10.0158C29.9356 10.1411 29.9482 11.2424 29.9482 13.0125V15.8111L31.0569 15.8023L32.1655 15.7935L32.1828 13.1061C32.1999 10.4602 32.2013 10.4146 32.2739 10.1568C32.5205 9.2819 33.071 8.78901 33.8826 8.71653C34.3729 8.67277 34.8401 8.80437 35.1272 9.06717C35.3373 9.25936 35.4901 9.53058 35.5913 9.8907C35.6639 10.1486 35.6648 10.1837 35.6753 12.9813L35.6859 15.8111L36.7931 15.8023L37.9004 15.7935L37.9001 12.8223C37.8998 9.86389 37.8995 9.84927 37.8227 9.42251C37.6257 8.3272 37.2158 7.61875 36.5177 7.16699C36.0742 6.87992 35.5779 6.7371 34.9162 6.70612C33.6197 6.64543 32.6447 7.09588 31.9868 8.05953L31.8197 8.30443L31.7461 8.15968C31.4581 7.59258 31.0063 7.16709 30.4556 6.94439C29.89 6.71564 29.1101 6.63872 28.43 6.74458ZM68.2143 6.72926C65.8523 7.02761 64.2389 8.66255 64.0602 10.9386C63.9475 12.3752 64.368 13.6196 65.2939 14.5893C65.9267 15.2521 66.7567 15.6986 67.7583 15.9149C68.0523 15.9784 68.2125 15.9908 68.7586 15.9922C69.3208 15.9936 69.4554 15.9834 69.7536 15.9165C70.5167 15.7454 71.2655 15.4107 71.7586 15.0203C71.9081 14.9019 72.0258 14.7916 72.02 14.7751C72.0142 14.7587 71.6844 14.3938 71.2871 13.9642L70.5648 13.1832L70.3295 13.4096C69.155 14.5399 67.075 13.9967 66.4578 12.3986C66.3146 12.0278 66.2458 11.5905 66.2698 11.2032C66.2962 10.776 66.3654 10.518 66.5649 10.1028C66.7128 9.79505 66.7688 9.7176 67.0371 9.45002C67.2927 9.1951 67.3923 9.12145 67.6583 8.99052C68.0013 8.82163 68.2678 8.74815 68.6585 8.7147C69.2239 8.66629 69.8071 8.91647 70.343 9.43727L70.5103 9.59995L71.288 8.82076L72.0657 8.0416L71.8167 7.81575C71.2311 7.28477 70.606 6.97493 69.7516 6.79225C69.3988 6.7168 68.5788 6.68322 68.2143 6.72926ZM76.394 6.73079C75.1821 6.87828 74.1999 7.29112 73.504 7.94542L73.3098 8.12806L73.8959 8.7167L74.4821 9.30533L74.6628 9.14953C75.0317 8.83154 75.589 8.56557 76.1428 8.44328C76.4807 8.36863 77.1434 8.3694 77.4776 8.44485C78.3895 8.6507 78.8564 9.21837 78.8606 10.1265L78.8613 10.2684L78.1194 10.2687C75.3545 10.2698 73.7866 10.7983 73.0961 11.962C72.8341 12.4035 72.7421 12.8283 72.7675 13.4788C72.7875 13.9907 72.8826 14.3107 73.1246 14.6796C73.5686 15.3564 74.3247 15.8044 75.2893 15.9626C75.7823 16.0434 76.5224 16.0158 76.9647 15.9002C77.703 15.7071 78.3224 15.2934 78.697 14.743C78.7598 14.6507 78.8225 14.5751 78.8363 14.5751C78.85 14.575 78.8613 14.8532 78.8613 15.1931V15.8112L79.8532 15.8024L80.8451 15.7935L80.8548 13.2396C80.8656 10.4031 80.841 9.68161 80.7149 9.13334C80.5313 8.33585 80.1604 7.74832 79.6 7.3676C79.1779 7.08086 78.6669 6.87955 78.1001 6.77683C77.7567 6.7146 76.7503 6.68743 76.394 6.73079ZM40.2925 10.0097C40.3057 13.4263 40.3021 13.3658 40.5326 14.0496C40.8622 15.0275 41.6145 15.7042 42.6304 15.9366C42.991 16.0191 44.0491 16.0156 44.3854 15.9308C45.1209 15.7454 45.689 15.299 46.1364 14.555L46.2526 14.3619V15.0861V15.8102H47.3029H48.3531V11.3701V6.92996H47.2547H46.1562L46.1441 9.57568C46.1322 12.1649 46.1304 12.2273 46.0595 12.4965C45.8063 13.4579 45.1195 14.0046 44.162 14.0069C43.6875 14.008 43.3524 13.8827 43.0861 13.6046C42.8852 13.3949 42.7761 13.1914 42.6727 12.8342C42.5366 12.364 42.5185 11.9563 42.5184 9.35868L42.5182 6.92996H41.3994H40.2805L40.2925 10.0097ZM50.4537 7.81465V8.69934H52.6876C53.9163 8.69934 54.9216 8.71102 54.9216 8.72535C54.9216 8.73963 53.8644 9.87013 52.5723 11.2375L50.2231 13.7237L50.2217 14.7671L50.2203 15.8105L54.0296 15.802L57.839 15.7935L57.8479 14.9007L57.8568 14.0079L55.3672 13.9993L52.8777 13.9908L55.2499 11.4702L57.6221 8.94972L57.6222 7.93984L57.6223 6.92996H54.038H50.4537V7.81465ZM59.731 11.3617L59.7395 15.7935L60.8481 15.8023L61.9568 15.8111V11.3705V6.92996H60.8397H59.7226L59.731 11.3617ZM77.1288 11.8747C76.326 11.946 75.6364 12.1739 75.2681 12.4895C74.9886 12.729 74.8945 13.2251 75.0578 13.5973C75.2763 14.0955 75.8872 14.3689 76.694 14.3295C77.3803 14.296 77.8489 14.1212 78.1961 13.7689C78.5421 13.418 78.6877 13.0072 78.7181 12.2965L78.7378 11.8375L78.091 11.8421C77.7353 11.8446 77.3023 11.8593 77.1288 11.8747Z" fill="white"/>
</svg>
