<svg width="87" height="20" viewBox="0 0 87 20" fill="none" xmlns="http://www.w3.org/2000/svg">
<path fill-rule="evenodd" clip-rule="evenodd" d="M0.857178 5.13094C0.857178 8.82782 0.867486 10.2722 0.894095 10.2987C0.914411 10.3189 3.1355 11.5492 5.82986 13.0326L10.7286 15.7298L9.65031 16.8067L8.57198 17.8835L9.6569 18.9418C10.2536 19.5238 10.7519 20 10.7642 20C10.7766 20 11.2749 19.5238 11.8716 18.9418L12.9565 17.8835L11.8782 16.8067L10.7999 15.7298L15.6986 13.0326C18.393 11.5492 20.6141 10.3189 20.6344 10.2987C20.661 10.2722 20.6713 8.82782 20.6713 5.13094C20.6713 2.30892 20.6637 0 20.6543 0C20.6449 0 18.4275 1.42188 15.7267 3.15977C13.0258 4.89765 10.7927 6.31957 10.7642 6.31957C10.7358 6.31957 8.50266 4.89765 5.80181 3.15977C3.10096 1.42188 0.883552 0 0.87418 0C0.864842 0 0.857178 2.30892 0.857178 5.13094ZM36.4523 4.5263C35.8331 4.60377 35.178 4.81848 34.7119 5.09665C33.5167 5.81004 32.7625 7.06912 32.4989 8.79066C32.4128 9.35299 32.4131 10.6899 32.4995 11.2594C32.9164 14.0085 34.542 15.5138 37.0926 15.5127C37.8761 15.5124 38.5393 15.3772 39.1378 15.0958C40.3959 14.5043 41.2473 13.315 41.5725 11.695C41.6894 11.1126 41.7238 10.7272 41.7238 10.0011C41.7238 8.69601 41.5357 7.76951 41.085 6.85571C40.3217 5.30786 38.9158 4.49001 37.0505 4.50876C36.7767 4.51149 36.5076 4.5194 36.4523 4.5263ZM24.3195 10.0083V15.2794H25.4408H26.562V13.1276V10.9758H28.1351H29.7082V10.1585V9.34112H28.1351H26.562V7.85655V6.37198H28.3694C29.4552 6.37198 30.1768 6.35963 30.1768 6.34108C30.1768 6.3241 30.2295 5.96057 30.2939 5.53321C30.3583 5.10589 30.411 4.75196 30.411 4.74676C30.411 4.74155 29.0405 4.73728 27.3653 4.73728H24.3195V10.0083ZM43.799 4.76457C43.799 4.77958 44.4093 5.89061 45.1553 7.23349L46.5117 9.67513L45.0339 12.4522C44.221 13.9796 43.5495 15.2406 43.5416 15.2544C43.5337 15.2682 44.0666 15.2791 44.7258 15.2787L45.9243 15.2781L46.8754 13.2103C47.3985 12.0731 47.8344 11.1505 47.8441 11.1601C47.8538 11.1698 48.2922 12.0968 48.8183 13.2202L49.775 15.2627L51.0079 15.2715C51.9902 15.2785 52.2374 15.2717 52.2238 15.2381C52.2144 15.2149 51.5281 13.9362 50.6986 12.3965C49.8691 10.8568 49.1957 9.58826 49.2021 9.57751C49.4191 9.21471 51.9321 4.78529 51.9321 4.76567C51.9321 4.75006 51.4045 4.73728 50.7596 4.73728H49.5872L48.9612 6.01334C48.6169 6.71516 48.2296 7.50385 48.1004 7.76594L47.8656 8.24247L47.0456 6.49037L46.2255 4.73828L45.0123 4.73778C44.345 4.73751 43.799 4.74956 43.799 4.76457ZM56.9861 10.0584V15.2794H57.4377H57.8894L57.8979 12.7356L57.9065 10.1918L60.3749 10.1833L62.8433 10.1747V12.728V15.2813L63.3035 15.272L63.7637 15.2627V10.0584V4.85404L63.3035 4.84477L62.8433 4.8355V7.12187V9.40827L60.3749 9.3997L57.9065 9.39116L57.8979 7.11426L57.8893 4.83736H57.4377H56.9861V10.0584ZM68.4997 8.66952C68.4997 11.9385 68.5072 12.5452 68.5504 12.798C68.6973 13.6571 69.0831 14.3437 69.6712 14.7925C70.2047 15.1996 70.8065 15.3937 71.6626 15.4347C72.7703 15.4876 73.6652 15.2135 74.2808 14.6327C74.7316 14.2074 75.0081 13.7369 75.1851 13.0942L75.277 12.7606L75.2864 8.79806L75.2959 4.83546L74.8348 4.84477L74.3737 4.85404L74.3565 8.7573L74.3394 12.6606L74.2648 12.9274C74.2238 13.0742 74.122 13.3325 74.0386 13.5014C73.7577 14.0703 73.3014 14.4162 72.6332 14.567C72.2377 14.6562 71.495 14.6485 71.0978 14.5509C70.2335 14.3387 69.7129 13.78 69.4928 12.8283C69.4248 12.5341 69.4229 12.4374 69.4121 8.68223L69.401 4.83736H68.9504H68.4997V8.66952ZM80.0288 4.87907C80.02 4.90202 80.0168 7.24771 80.0215 10.0917L80.0301 15.2627L81.5864 15.2726C82.5271 15.2785 83.2943 15.2681 83.5258 15.2462C85.1432 15.0937 86.1381 14.4293 86.4745 13.2768C86.5673 12.9589 86.6023 12.165 86.5404 11.7825C86.4517 11.2341 86.2376 10.807 85.8881 10.4811C85.5191 10.1371 84.9605 9.86135 84.49 9.79103C84.2997 9.76257 84.309 9.72994 84.5226 9.67633C84.8294 9.5993 85.2014 9.37621 85.4693 9.10856C85.7544 8.82365 85.8979 8.57962 86.0101 8.18899C86.1103 7.84007 86.1183 7.10986 86.0256 6.77231C85.9123 6.35953 85.7513 6.0815 85.4559 5.78816C84.923 5.25908 84.1473 4.97031 82.9922 4.87103C82.4021 4.82032 80.0488 4.82669 80.0288 4.87907ZM80.9505 7.52294V9.40784H82.2003C83.341 9.40784 83.4732 9.402 83.7148 9.34092C84.7858 9.07019 85.3344 8.18058 85.1198 7.06242C84.9664 6.26349 84.3883 5.82762 83.2778 5.67366C83.1364 5.65408 82.555 5.63803 81.9857 5.63803H80.9505V7.52294ZM36.7703 6.20274C35.7389 6.34682 35.143 7.06629 34.89 8.47306C34.7914 9.02182 34.7653 10.4943 34.8425 11.1593C34.9969 12.4888 35.4147 13.2764 36.1511 13.6262C36.4733 13.7792 36.694 13.8247 37.105 13.8225C38.2364 13.8164 38.9223 13.1707 39.2075 11.843C39.3278 11.2831 39.3608 10.8884 39.3608 10.0083C39.3608 9.12827 39.3278 8.73361 39.2075 8.17364C38.9329 6.89568 38.2939 6.25825 37.2222 6.19326C37.0749 6.18432 36.8716 6.18859 36.7703 6.20274ZM80.9505 12.3411V14.5121L81.963 14.5118C83.5019 14.5114 84.0358 14.4436 84.5848 14.1789C85.0636 13.9481 85.3494 13.6267 85.525 13.1219C85.6067 12.887 85.6159 12.8136 85.6169 12.3937C85.6176 12.0521 85.6022 11.8684 85.5596 11.7098C85.3629 10.9784 84.8567 10.5016 84.0297 10.2688C83.7963 10.2031 83.6793 10.1971 82.3646 10.1841L80.9505 10.1701V12.3411Z" fill="white"/>
</svg>
